<?xml version="1.0" encoding="UTF-8" standalone="no"?>
<!-- Created with Inkscape (http://www.inkscape.org/) -->

<svg
   width="128.97577mm"
   height="74.828835mm"
   viewBox="0 0 128.97577 74.828835"
   version="1.1"
   id="svg1"
   xml:space="preserve"
   inkscape:version="1.4.2 (f4327f4, 2025-05-13)"
   sodipodi:docname="Marle Hall Hero.svg"
   inkscape:export-filename="Marle Hall Hero.pdf"
   inkscape:export-xdpi="96"
   inkscape:export-ydpi="96"
   xmlns:inkscape="http://www.inkscape.org/namespaces/inkscape"
   xmlns:sodipodi="http://sodipodi.sourceforge.net/DTD/sodipodi-0.dtd"
   xmlns="http://www.w3.org/2000/svg"
   xmlns:svg="http://www.w3.org/2000/svg"><sodipodi:namedview
     id="namedview1"
     pagecolor="#ffffff"
     bordercolor="#000000"
     borderopacity="0.25"
     inkscape:showpageshadow="2"
     inkscape:pageopacity="0.0"
     inkscape:pagecheckerboard="0"
     inkscape:deskcolor="#d1d1d1"
     inkscape:document-units="mm"
     inkscape:zoom="0.68862935"
     inkscape:cx="483.56928"
     inkscape:cy="458.15648"
     inkscape:window-width="1920"
     inkscape:window-height="991"
     inkscape:window-x="-9"
     inkscape:window-y="-9"
     inkscape:window-maximized="1"
     inkscape:current-layer="layer1"><inkscape:page
       x="0"
       y="0"
       width="128.97577"
       height="74.828835"
       id="page2"
       margin="0"
       bleed="0" /></sodipodi:namedview><defs
     id="defs1" /><g
     inkscape:label="Layer 1"
     inkscape:groupmode="layer"
     id="layer1"
     transform="translate(-84.012091,-62.823116)"><path
       style="font-weight:bold;font-size:16.9333px;line-height:28.9333px;font-family:'Engravers\' Roman';-inkscape-font-specification:'Engravers\' Roman,  Medium';text-align:center;letter-spacing:0px;text-anchor:middle;fill:#333333;stroke-width:2.19628"
       d="m 86.485204,113.31129 v -7.38227 l 5.299615,8.21904 5.336805,-9.5393 v 9.29757 c 0,1.5062 -0.20455,2.17563 -1.134302,2.17563 h -0.07434 v 0.55785 h 4.016547 v -0.55785 h -0.07434 c -0.929751,0 -1.134302,-0.66943 -1.134302,-2.17563 v -7.6612 c 0,-1.5062 0.204551,-2.17563 1.134302,-2.17563 h 0.07434 v -0.55785 H 97.10307 l -4.853336,8.60955 -5.485566,-8.60955 h -2.64051 v 0.55785 c 0.855377,0.0186 1.357445,0.29752 1.803729,1.00414 v 8.23765 c 0,1.8781 -0.57645,2.75208 -1.9153,2.77067 v 0.55785 h 4.388453 v -0.55785 c -1.33885,-0.0186 -1.915299,-0.89257 -1.915299,-2.77067 z m 16.531076,-0.0186 0.83678,-1.72935 h 6.155 l 1.32025,2.32439 c 0.29752,0.52066 0.42769,1.04133 0.42769,1.26447 0,0.52066 -0.3905,0.92975 -0.98555,0.92975 h -0.11157 v 0.55786 h 4.6116 v -0.55786 c -0.53926,-0.0743 -1.30166,-0.70662 -1.74794,-1.48761 l -6.34095,-11.25005 -4.81614,9.9484 c -0.87397,1.78512 -1.46901,2.73348 -2.826456,2.78926 v 0.55786 h 4.388456 v -0.55786 c -0.91117,-0.0558 -1.43183,-0.53926 -1.43183,-1.15289 0,-0.33472 0.16735,-0.89257 0.52066,-1.63637 z m 1.13431,-2.28721 2.54753,-5.31821 2.99382,5.31821 z m 18.65091,-6.93599 c 1.95249,0 3.21696,1.19009 3.21696,2.86366 0,1.65496 -1.26447,2.84505 -3.21696,2.84505 h -5.05788 v -5.70871 z m -0.27892,-0.55785 h -7.54963 v 0.55785 h 0.0743 c 0.94836,0 1.11571,0.68802 1.11571,2.17564 v 7.66119 c 0,1.5062 -0.16735,2.17563 -1.15289,2.17563 h -0.0372 v 0.55786 h 3.96077 v -0.55786 h -0.0372 c -0.98555,0 -1.15291,-0.66943 -1.15291,-2.17563 v -3.55167 h 4.48144 -0.37842 c 0.7624,0.50207 1.60568,1.89671 2.29371,3.66325 0.70661,1.84091 1.22186,2.60725 2.37475,2.60725 0.59505,0 1.88998,-0.0121 3.16668,0.0147 v -0.55786 c -0.27893,0.0558 -2.15168,0.007 -2.2195,-0.0231 -0.54613,-0.24621 -1.1649,-1.14837 -1.81573,-2.56159 -0.66943,-1.41323 -1.09711,-2.58472 -2.02687,-3.16117 2.73349,-0.14876 4.27688,-1.50621 4.27688,-3.40291 0,-2.25002 -1.78513,-3.42151 -5.37399,-3.42151 z m 14.29966,12.57031 h -4.33267 v -9.83682 c 0,-1.50621 0.18595,-2.17564 1.1157,-2.17564 h 0.0744 v -0.55785 h -3.99796 v 0.55785 h 0.11157 c 0.89257,0 1.09711,0.68802 1.09711,2.17564 v 7.66119 c 0,1.5062 -0.20454,2.17563 -1.1343,2.17563 h -0.0744 v 0.55786 h 11.08271 v -3.03101 h -0.55785 c -0.61364,1.78513 -1.61778,2.47315 -3.38432,2.47315 z m 12.68188,0 h -5.07648 v -6.30375 h 2.38018 c 1.85951,0 2.75208,0.46488 2.77067,1.59918 h 0.55786 v -3.75621 h -0.55786 c -0.0186,1.1343 -0.89255,1.59918 -2.77067,1.59918 h -2.38018 v -5.15086 h 5.07648 c 1.76653,0 2.75208,0.65084 3.36572,2.36159 h 0.57645 v -2.91944 h -11.8823 v 0.55785 h 0.11157 c 0.89257,0 1.09712,0.66943 1.09712,2.17564 v 7.66119 c 0,1.5062 -0.20455,2.17563 -1.1343,2.17563 h -0.0744 v 0.55786 h 11.8823 v -3.03101 h -0.57645 c -0.61364,1.78513 -1.59919,2.47315 -3.36572,2.47315 z m 12.31,0.55786 h 4.01654 v -0.55786 h -0.0743 c -0.92976,0 -1.11571,-0.66943 -1.11571,-2.17563 v -4.51861 h 7.32648 v 4.51861 c 0,1.5062 -0.20455,2.17563 -1.1343,2.17563 h -0.0743 v 0.55786 h 4.01654 v -0.55786 h -0.0743 c -0.92976,0 -1.13431,-0.66943 -1.13431,-2.17563 v -7.66119 c 0,-1.50621 0.20455,-2.17564 1.13431,-2.17564 h 0.0743 v -0.55785 h -4.01654 v 0.55785 h 0.0743 c 0.92975,0 1.1343,0.66943 1.1343,2.17564 v 2.58472 h -7.32648 v -2.58472 c 0,-1.50621 0.18595,-2.17564 1.11571,-2.17564 h 0.0743 v -0.55785 h -4.01654 v 0.55785 h 0.0743 c 0.92976,0 1.1343,0.66943 1.1343,2.17564 v 7.66119 c 0,1.5062 -0.20454,2.17563 -1.1343,2.17563 h -0.0743 z m 16.27076,-3.34713 0.83678,-1.72934 h 6.15499 l 1.32026,2.32439 c 0.29752,0.52066 0.42768,1.04133 0.42768,1.26447 0,0.52066 -0.3905,0.92975 -0.98554,0.92975 h -0.11157 v 0.55786 h 4.6116 v -0.55786 c -0.53926,-0.0743 -1.30166,-0.70662 -1.74794,-1.48761 l -6.34095,-11.25005 -4.81614,9.94839 c -0.87397,1.78513 -1.46901,2.73349 -2.82647,2.78927 v 0.55786 h 4.38846 v -0.55786 c -0.91116,-0.0558 -1.43182,-0.53926 -1.43182,-1.15289 0,-0.33472 0.16735,-0.89257 0.52066,-1.63638 z m 1.1343,-2.2872 2.54753,-5.31821 2.99383,5.31821 z m 17.9443,5.07647 h -4.33266 v -9.83682 c 0,-1.50621 0.18594,-2.17563 1.11569,-2.17563 h 0.0744 v -0.55786 h -3.99796 v 0.55786 h 0.11157 c 0.89257,0 1.09711,0.68802 1.09711,2.17563 v 7.6612 c 0,1.50619 -0.20454,2.17562 -1.1343,2.17562 h -0.0743 v 0.55786 h 11.0827 v -3.03101 h -0.55785 c -0.61364,1.78513 -1.61778,2.47315 -3.38432,2.47315 z m 11.88229,0 h -4.33267 v -9.83682 c 0,-1.50621 0.18595,-2.17563 1.11571,-2.17563 h 0.0743 v -0.55786 h -3.99795 v 0.55786 h 0.11157 c 0.89257,0 1.09712,0.68802 1.09712,2.17563 v 7.6612 c 0,1.50619 -0.20455,2.17562 -1.1343,2.17562 h -0.0744 v 0.55786 h 11.08271 V 113.6088 H 212.43 c -0.61364,1.78513 -1.61778,2.47315 -3.38431,2.47315 z"
       id="text1"
       aria-label="MARLE HALL"
       sodipodi:nodetypes="ccccssccccssssccccccccsccccccccccsscccccccccccscccccsssccscccssssccccssccccsccsccsccccssccccsssscccccsccccsccccsccscccccsssscccccsccccssccssccccssssccccssccssccccssssccccccsscccccccccccscccccccssccccsssscccccscccssccccssssccccccc" /><text
       xml:space="preserve"
       style="font-style:normal;font-variant:normal;font-weight:normal;font-stretch:normal;font-size:23.2159px;line-height:17.3923px;font-family:'Archive Petite Script';-inkscape-font-specification:'Archive Petite Script';text-align:center;letter-spacing:0px;writing-mode:lr-tb;direction:ltr;text-anchor:middle;fill:#333333;stroke-width:2.35031"
       x="147.85196"
       y="137.54993"
       id="text2"><tspan
         sodipodi:role="line"
         style="font-style:normal;font-variant:normal;font-weight:normal;font-stretch:normal;line-height:17.3923px;font-family:Exmouth;-inkscape-font-specification:Exmouth;stroke-width:2.35031"
         x="147.85196"
         y="137.54993"
         id="tspan3">Llandudno</tspan><tspan
         sodipodi:role="line"
         style="font-style:normal;font-variant:normal;font-weight:normal;font-stretch:normal;line-height:17.3923px;font-family:Exmouth;-inkscape-font-specification:Exmouth;stroke-width:2.35031"
         x="147.85196"
         y="156.35645"
         id="tspan4" /></text><g
       id="g4"
       transform="matrix(0.17569786,0,0,0.17569786,131.48067,62.823115)"
       style="fill:#333333"><g
         id="layer1-2"
         transform="translate(-8.1329843,-44.638104)"
         style="fill:#333333"><path
           id="rect1"
           style="fill:#333333;stroke-width:3.53186"
           d="M 104.99964,44.638102 A 25.540022,14.669264 0 0 1 82.0753,59.230002 H 39.25339 15.986772 a 25.540022,14.669264 0 0 1 23.266618,14.6007 V 212.28481 a 25.540022,25.540022 0 0 0 25.539343,25.54021 h 18.088535 a 25.540022,14.669264 0 0 1 22.118372,14.53735 25.540022,14.669264 0 0 1 22.11751,-14.53735 h 18.08853 a 25.540022,25.540022 0 0 0 25.54023,-25.54021 V 73.828063 a 25.540022,14.669264 0 0 1 23.26662,-14.598061 h -23.26662 -42.82192 a 25.540022,14.669264 0 0 1 -22.92435,-14.5919 z m 0.002,7.94882 c 5.25743,5.656423 12.77526,8.160871 20.06826,8.933402 14.42143,0.333973 28.8556,0.165491 43.28208,0.197093 -2.22317,2.520291 -3.86364,5.741083 -4.14159,9.219362 -0.12276,46.944711 -0.0556,93.893861 -0.0862,140.840331 0.28939,5.41146 -1.12504,10.95526 -4.30349,15.24302 -3.41479,4.77241 -8.80069,7.83776 -14.43968,8.22421 -7.38405,0.52495 -14.82004,-0.39725 -22.187,0.52178 -6.6295,0.99072 -13.40984,3.46994 -18.18533,8.64656 -2.84391,-2.98135 -6.470697,-5.26276 -10.29457,-6.65364 -6.085642,-2.43215 -12.675691,-2.45293 -19.088956,-2.40031 -4.358064,-0.092 -8.702483,0.3849 -12.905174,-0.36163 -9.021237,-1.37736 -16.313012,-10.13108 -16.790714,-19.72599 -0.114981,-47.09996 -0.06038,-94.20228 -0.08975,-141.303156 0.342022,-4.488608 -1.249901,-9.013426 -4.19086,-12.243497 6.990023,-0.0019 13.980111,-0.0043 20.970136,-0.0062 6.478788,-0.116786 12.959181,0.141924 19.436508,-0.05279 7.922055,-0.277005 16.22013,-2.499462 22.19845,-8.29813 0.24941,-0.259952 0.49846,-0.520499 0.7479,-0.780452 z" /></g><g
         id="layer2"
         transform="translate(-8.1329843,-44.638104)"
         style="fill:#333333"><path
           id="text4"
           style="font-size:72.5242px;line-height:78.1206px;font-family:Exmouth;-inkscape-font-specification:Exmouth;letter-spacing:0px;fill:#333333;stroke-width:4.86159"
           d="m 147.531,74.761278 c -0.56522,-0.0068 -1.53933,0.234934 -1.9815,0.234934 -0.48235,0 -1.76802,0.341709 -3.85826,1.025057 -10.21,3.416728 -20.72188,10.973663 -31.53483,22.670942 L 72.713188,139.39185 c -8.602121,9.32567 -15.937791,16.39992 -22.007512,21.22354 9.406056,-13.82771 20.138333,-28.35809 32.197381,-43.59268 13.42574,-16.96305 25.183163,-30.529844 35.272563,-40.699643 l 1.94717,-1.47291 -2.18825,0.146089 h -0.5429 c -2.29121,-0.04018 -5.80826,1.146407 -10.55148,3.558219 -8.079572,4.059876 -18.872532,13.485966 -32.378654,28.278405 -20.098412,21.98766 -31.333,33.1713 -33.704612,35.46251 -4.333983,5.07409 -10.755649,8.70164 -16.415422,9.04607 -19.6563365,1.19623 -21.0022736,-37.85527 19.765061,-28.71722 1.608786,0.36061 -34.6951568,-11.97777 -35.9566637,16.19091 -0.4859806,10.85169 9.6388747,15.75288 14.8290867,15.24256 4.704755,-0.46258 9.144249,-1.1092 20.551314,-11.34956 L 79.104623,103.51662 C 93.213714,88.523195 98.996493,85.868583 104.58325,81.633161 96.166754,93.486081 88.264162,101.6901 77.228722,115.93697 63.565098,134.45791 54.64929,145.53016 47.328704,159.28945 c -0.717463,1.3485 0.54246,2.67306 1.627775,3.43681 4.140273,-1.92945 8.763641,-5.38672 13.868639,-10.37113 1.567675,-1.52748 5.566526,-5.78776 11.998018,-12.78199 L 112.14581,98.692245 c 3.60267,-4.723236 17.36902,-14.040951 20.77134,-16.631169 -4.8408,5.712247 -12.82705,15.294489 -27.72393,33.463454 -17.112688,20.20354 -23.800674,30.42328 -26.030524,38.0114 -0.475988,1.61977 -1.866789,5.39137 -0.419703,6.71787 1.447086,1.28629 3.014683,1.92958 4.702948,1.92958 3.152053,-0.23414 6.377153,-1.4165 9.574827,-3.0435 0.512724,0.55966 1.119964,1.07732 1.823115,1.55298 8.070007,5.24546 20.581447,0.26342 21.204187,-10.21539 0.6238,-10.49697 -12.3626,1.57227 -22.145661,6.37295 -0.648103,-0.98682 -0.603187,-2.18534 -0.406358,-3.42848 0.318552,-2.01208 2.001673,-5.39271 4.545483,-8.19073 2.853436,-3.1386 7.607096,-5.36547 13.050206,-5.76366 5.94038,-0.43455 9.73624,1.35594 11.33987,4.06681 0.57271,2.48178 1.14567,4.96287 1.7184,7.44464 0.64907,2.67268 2.82512,4.0096 6.52869,4.0096 2.74905,0 5.65102,-0.85901 8.70552,-2.57716 -8.74349,6.49079 -17.65941,15.86386 -26.74653,28.12003 -13.974307,2.93994 -25.619371,6.37599 -34.935575,10.30865 -15.883366,6.68171 -23.825341,14.24171 -23.825341,22.67974 0,4.31448 3.665932,6.47239 10.996717,6.47239 8.896211,0 18.212251,-3.45594 27.948456,-10.36673 7.865333,-5.61264 15.139263,-12.71372 21.820973,-21.30448 2.63449,-3.47449 4.61956,-6.07143 5.9559,-7.78957 l 15.06264,-2.46278 c -6.98715,8.05623 -11.74111,13.86018 -14.26107,17.41103 -5.76536,8.0944 -9.842,16.09491 -9.842,21.13483 0,4.0472 2.88745,5.62398 6.97283,5.62398 2.35631,0 5.43437,-0.14592 9.79555,-3.7016 34.0291,-32.04996 88.62606,-41.03758 60.06685,-18.00563 -3.63806,2.93395 -16.22347,9.41808 -18.04825,10.76074 1.64718,-0.33771 13.11509,-5.72032 18.68631,-9.18341 6.74112,-4.1903 9.28356,-8.74102 9.89221,-10.28975 2.29186,-5.83181 -9.19543,-7.24283 -26.48046,-1.41284 -16.83206,4.60764 -32.74014,15.73173 -44.97186,26.26379 -4.21088,3.2978 -5.82237,3.03557 -8.41869,3.03557 -2.06177,0 -3.09276,-0.82098 -3.09276,-2.46277 0,-2.97814 4.19999,-10.11814 12.59985,-21.41976 5.38355,-7.21624 11.01463,-14.26032 16.89454,-21.13292 10.30892,-1.2218 21.3819,-4.25684 33.21805,-9.10585 15.46338,-6.41444 23.19446,-13.30642 23.19446,-20.67538 0,-4.12356 -3.22605,-6.18554 -9.67866,-6.18554 -6.4908,0 -14.94781,3.64604 -25.37127,10.93864 -7.94167,5.49809 -15.25366,11.70303 -21.93538,18.61382 -3.4363,3.55085 -6.01334,6.2238 -7.73149,8.01833 l -15.46297,2.63437 8.81989,-13.05828 c 3.51266,-5.19264 6.75772,-9.31659 9.73586,-12.37109 0.64907,-0.64907 2.88304,-2.51918 6.70116,-5.61186 3.39811,-2.74904 5.26822,-4.41003 5.61185,-4.98275 0.11459,-0.26727 0.1915,-0.49628 0.22964,-0.68718 l -0.40121,-0.5728 c -0.38181,0.0381 -3.07378,1.92817 -8.07552,5.66994 -5.00174,3.70357 -9.25877,5.55466 -12.77144,5.55466 -1.29817,0 -2.15716,-0.76308 -2.57716,-2.29032 -0.26727,-1.25998 -0.5343,-2.53899 -0.80157,-3.83715 -1.06907,-2.97812 -3.51303,-5.23109 -7.33114,-6.75834 -3.01631,-1.18362 -6.41433,-1.77561 -10.19427,-1.77561 -13.841053,0 -19.683766,8.90218 -19.683766,15.4973 0,1.55257 0.371556,2.94156 1.114805,4.16622 -3.014281,1.54633 -5.86436,2.6238 -8.256772,2.6238 -1.728464,0 -2.593002,-0.56209 -2.593002,-1.6876 0,-2.85396 9.748165,-16.27979 29.243635,-40.2773 17.7268,-21.826877 29.68497,-35.895973 35.87527,-42.206879 l 1.6269,-1.355017 c 0,-0.150686 -0.17246,-0.204065 -0.42938,-0.206772 z m 44.60013,65.279032 c 5.57445,0 8.3615,1.58495 8.3615,4.75399 0,6.71989 -7.36902,13.15298 -22.10695,19.30014 -11.53073,4.81083 -22.01082,7.75081 -31.44156,8.81988 20.4651,-21.91599 35.52718,-32.87401 45.18701,-32.87401 z m -97.677039,18.34287 c 10.132989,-6.1238 14.930859,-10.43467 17.970579,-10.83594 3.6694,-0.48439 2.17936,4.73511 -1.33986,9.04037 -4.05212,5.30177 -11.75015,6.9096 -16.630719,1.79557 z m 16.923589,23.92385 c -6.49079,10.69073 -12.789913,18.82369 -18.898905,24.39814 -8.590767,7.82713 -17.754719,11.74022 -27.490918,11.74022 -6.299892,0 -9.44989,-1.68001 -9.44989,-5.03995 0,-7.71259 7.598019,-14.77565 22.794123,-21.19009 9.507108,-4.04721 20.522162,-7.35018 33.04559,-9.90832 z" /></g></g></g></svg>
